# xmcd
#
# Track frame offsets: 
#        150
#        10549
#        26011
#        40937
#        52996
#        63603
#        80560
#        91953
#        101672
#        115383
#        124691
#        140411
#        154159
#        168749
#        181213
#        194554
#        208555
#        219376
#        240623
#        259622
#        276614
#        297068
#
# Disc length: 4171 seconds
#
# Revision: 0
# Processed by: cddbd v1.5.2PL0 Copyright (c) Steve Scherf et al.
# Submitted via: ExactAudioCopyFreeDBPlugin 1.0
#
DISCID=42104916
DTITLE=Linda Lewis - Hampstead Days
DYEAR=2014
DGENRE=Soul
TTITLE0=Red Light Ladies
TTITLE1=Feeling Feeling
TTITLE2=More Than A Fool
TTITLE3=What Are You Asking Me For
TTITLE4=Gladly Give My Hand
TTITLE5=Lark
TTITLE6=Been My Best
TTITLE7=Little Indians
TTITLE8=It's The Frame
TTITLE9=The Funky Kitchen
TTITLE10=Rock-A-Doodle-Doo
TTITLE11=On The Stage
TTITLE12=Old Smokey
TTITLE13=Glady Give My Hand
TTITLE14=What Are You Asking Me For
TTITLE15=Water Baby
TTITLE16=If I Could
TTITLE17=Not A Little Girl Anymore
TTITLE18=I Do My Best To Impress
TTITLE19=Love Where Are You Now
TTITLE20=The Cordon Blues
TTITLE21=It's In His Kiss
EXTD=
EXTT0=
EXTT1=
EXTT2=
EXTT3=
EXTT4=
EXTT5=
EXTT6=
EXTT7=
EXTT8=
EXTT9=
EXTT10=
EXTT11=
EXTT12=
EXTT13=
EXTT14=
EXTT15=
EXTT16=
EXTT17=
EXTT18=
EXTT19=
EXTT20=
EXTT21=
PLAYORDER=
